<!-- <svg width="512" height="512" viewBox="0 0 512 512" fill="none" xmlns="http://www.w3.org/2000/svg">
<rect width="512" height="512" rx="256" fill="#282C33"/>
<path fill-rule="evenodd" clip-rule="evenodd" d="M328 112H256V184H184H112V256V328V400H184H256V328H328H400V256V184V112H328ZM184 328H256V256H328V184H256V256H184V328Z" fill="white"/>
</svg> -->


<svg width="512" height="512" viewBox="0 0 512 512" fill="none" xmlns="http://www.w3.org/2000/svg">
<rect width="512" height="512" rx="256" fill="#282C33"/>
<!-- Properly scaled and centered R symbol -->
<!-- Main vertical stem (solid filled) -->
<rect x="156" y="136" width="52" height="240" fill="white"/>
<!-- Top horizontal bar (solid filled) -->
<rect x="208" y="136" width="120" height="52" fill="white"/>
<!-- Curve of the R (solid filled right side) -->
<rect x="328" y="136" width="52" height="120" fill="white"/>
<!-- Bottom leg of the R (outlined blocky shape) -->
<path d="M 245 256 L 302 256 L 302 324 L 370 324 L 370 370 L 245 367 Z" 
      fill="none" 
      stroke="white" 
      stroke-width="14"
      stroke-linejoin="miter"/>
</svg>